<?xml version="1.0" encoding="UTF-8"?> <svg xmlns="http://www.w3.org/2000/svg" width="2427" height="384" viewBox="0 0 2427 384" fill="none"><path d="M83.9212 6.34656H152.425L235.286 248.536H162.637L153.073 213.95H80.7259L70.5356 248.536H0.110107L83.9212 6.34656ZM139.04 162.038L118.637 87.4209H117.99L96.0114 162.038H139.04Z" fill="#008BC9"></path><path d="M308.253 167.12C308.253 173.003 309.095 178.312 310.801 183.069C313.348 190.307 317.925 195.064 324.51 197.316C331.095 199.568 337.68 200.717 344.265 200.717C347.028 200.717 350.115 200.442 353.505 199.867C356.895 199.316 360.09 198.167 363.069 196.466C366.049 194.766 368.488 192.514 370.388 189.687C372.31 186.86 373.259 183.184 373.259 178.656C373.259 175.485 372.504 172.842 371.036 170.682C369.546 168.545 366.999 166.5 363.393 164.57C359.788 162.639 354.779 160.617 348.41 158.457C342.041 156.32 333.966 153.769 324.186 150.827C315.27 148.116 306.18 145.22 296.94 142.187C287.7 139.13 279.409 135.063 272.09 129.984C264.771 124.906 258.748 118.448 254.085 110.658C249.4 102.868 247.068 92.8482 247.068 80.6456C247.068 66.6277 249.659 54.586 254.883 44.5207C260.086 34.4553 266.93 26.1594 275.437 19.5871C283.921 13.0377 293.702 8.23482 304.755 5.17845C315.809 2.12207 327.166 0.605377 338.846 0.605377C351.173 0.605377 362.961 1.96121 374.209 4.67288C385.458 7.38455 395.454 11.8657 404.154 18.0704C412.855 24.298 419.872 32.433 425.183 42.4984C430.494 52.5638 433.365 64.9501 433.797 79.6345H367.517C368.164 75.1074 367.668 71.2697 366.092 68.0984C364.494 64.9271 362.206 62.3304 359.248 60.3081C356.268 58.056 352.987 56.4704 349.36 55.5512C345.754 54.655 342.127 54.1954 338.522 54.1954C336.19 54.1954 333.535 54.4252 330.555 54.8848C327.576 55.3444 324.812 56.1257 322.265 57.2517C319.717 58.3778 317.58 60.0323 315.896 62.1695C314.19 64.3296 313.348 67.0873 313.348 70.4884C313.564 74.7857 315.637 78.3476 319.566 81.1742C323.495 84.0008 328.547 86.4826 334.7 88.6428C340.853 90.8029 347.805 92.8252 355.578 94.7555C363.328 96.6859 371.252 98.7771 379.326 101.029C387.401 103.511 395.259 106.452 402.902 109.854C410.545 113.255 417.41 117.598 423.455 122.906C429.501 128.215 434.337 134.787 437.964 142.577C441.569 150.368 443.383 159.813 443.383 170.889C443.383 186.723 440.295 199.959 434.142 210.576C427.989 221.216 419.915 229.742 409.919 236.176C399.923 242.633 388.675 247.253 376.131 250.079C363.587 252.906 350.957 254.33 338.219 254.33C333.966 254.33 328.547 253.986 321.962 253.319C315.378 252.63 308.361 251.159 300.934 248.907C293.486 246.655 286.059 243.599 278.632 239.738C271.184 235.9 264.491 230.707 258.554 224.134C252.595 217.585 247.716 209.657 243.894 200.396C240.073 191.135 238.151 180.035 238.151 167.166H308.253V167.12Z" fill="#008BC9"></path><path d="M466.644 6.34656H583.919C599.421 6.34656 612.482 9.05823 623.126 14.4816C633.748 19.9049 642.341 26.6841 648.947 34.8421C655.532 42.9771 660.26 51.9164 663.132 61.6371C666.003 71.3577 667.428 80.5268 667.428 89.1215C667.428 103.829 665.247 116.537 660.886 127.292C656.525 138.023 650.372 146.963 642.406 154.087C634.439 161.211 624.983 166.519 614.037 170.035C603.091 173.551 591.152 175.297 578.176 175.297H536.746V248.559H466.644V6.34656ZM536.746 117.594H563.841C568.31 117.594 572.757 117.433 577.226 117.088C581.695 116.744 585.668 115.733 589.187 114.032C592.706 112.332 595.556 109.735 597.801 106.242C600.025 102.749 601.148 97.9229 601.148 91.8331C601.148 86.4098 600.241 82.1125 598.449 78.9412C596.635 75.7699 594.196 73.403 591.13 71.8173C588.043 70.2317 584.48 69.2665 580.465 68.9448C576.427 68.6001 572.282 68.4392 568.029 68.4392H536.81V117.617L536.746 117.594Z" fill="#008BC9"></path><path d="M692.563 6.34656H880.889V68.4162H762.665V98.6123H870.051V156.27H762.665V186.466H884.387V248.536H692.541V6.34656H692.563Z" fill="#008BC9"></path><path d="M918.812 6.34656H990.512L1056.79 135.909H1057.44V6.34656H1123.72V248.536H1055.52L985.74 116.261H985.093V248.536H918.812V6.34656Z" fill="#008BC9"></path><path d="M1142.2 6.34656H1183.64L1240.68 197.979H1241.32L1299.64 6.34656H1340.12L1262.35 248.536H1218.05L1142.2 6.34656Z" fill="#008BC9"></path><path d="M1364.29 6.34656H1404.13V248.536H1364.29V6.34656Z" fill="#008BC9"></path><path d="M1454.49 6.34656H1618.3V42.9771H1494.33V106.403H1609.06V141.011H1494.33V211.905H1620.52V248.536H1454.49V6.34656Z" fill="#008BC9"></path><path d="M1634.53 6.34647H1675.01L1716.11 191.544H1716.76L1762.64 6.34647H1803.42L1848.03 191.544H1848.68L1891.06 6.34647H1931.54L1868.75 248.535H1828.27L1782.7 63.3375H1782.05L1735.52 248.535H1694.42L1634.51 6.34647H1634.53Z" fill="#008BC9"></path><path d="M27.0084 317.231H4.31763V295.124H74.6568V317.231H51.966V381.345H27.0084V317.231Z" fill="#008BC9"></path><path d="M107.229 295.124H174.286V317.231H132.186V327.985H170.422V348.507H132.186V359.261H175.517V381.368H107.229V295.147V295.124Z" fill="#008BC9"></path><path d="M261.518 327.248C261.367 326.444 261.108 325.341 260.719 323.916C260.33 322.514 259.661 321.112 258.668 319.757C257.675 318.378 256.379 317.183 254.76 316.126C253.141 315.069 251.025 314.563 248.456 314.563C245.498 314.563 243.059 315.253 241.072 316.608C239.108 317.987 237.532 319.78 236.366 322.055C235.2 324.307 234.336 326.835 233.818 329.661C233.279 332.488 233.019 335.337 233.019 338.233C233.019 341.128 233.279 343.978 233.818 346.804C234.336 349.631 235.2 352.159 236.366 354.411C237.532 356.663 239.108 358.478 241.072 359.857C243.037 361.236 245.498 361.902 248.456 361.902C250.572 361.902 252.364 361.535 253.853 360.822C255.322 360.087 256.574 359.099 257.589 357.812C258.603 356.525 259.445 354.985 260.093 353.216C260.741 351.446 261.237 349.562 261.626 347.54H286.13C286.13 351.883 285.31 356.203 283.69 360.455C282.071 364.729 279.675 368.567 276.544 371.991C273.414 375.415 269.528 378.172 264.907 380.264C260.287 382.355 255.041 383.412 249.147 383.412C242.562 383.412 236.733 382.24 231.681 379.919C226.607 377.575 222.311 374.404 218.813 370.382C215.294 366.361 212.639 361.581 210.825 356.065C209.012 350.55 208.105 344.621 208.105 338.256C208.105 331.5 209.077 325.341 210.998 319.78C212.919 314.218 215.683 309.484 219.288 305.532C222.872 301.579 227.19 298.523 232.221 296.363C237.251 294.18 242.908 293.1 249.19 293.1C260.374 293.191 269.031 296.179 275.119 302.108C281.208 308.014 284.77 316.424 285.849 327.294H261.561L261.518 327.248Z" fill="#008BC9"></path><path d="M319.956 295.124H344.914V325.067H368.295V295.124H393.253V381.345H368.295V347.174H344.914V381.345H319.956V295.124Z" fill="#008BC9"></path><path d="M429.549 295.124H455.068L478.665 341.245H478.881V295.124H502.478V381.345H478.19L453.34 334.259H453.103V381.345H429.505V295.124H429.549Z" fill="#008BC9"></path><path d="M539.487 320.057C541.451 314.542 544.236 309.785 547.82 305.809C551.404 301.834 555.744 298.708 560.817 296.456C565.891 294.204 571.482 293.078 577.614 293.078C583.745 293.078 589.337 294.204 594.411 296.456C599.484 298.708 603.802 301.834 607.408 305.809C610.992 309.785 613.777 314.542 615.741 320.057C617.706 325.572 618.699 331.639 618.699 338.234C618.699 344.83 617.706 350.896 615.741 356.412C613.777 361.927 610.992 366.684 607.408 370.659C603.824 374.635 599.484 377.76 594.411 380.012C589.337 382.264 583.745 383.391 577.614 383.391C571.482 383.391 565.891 382.264 560.817 380.012C555.744 377.76 551.426 374.635 547.82 370.659C544.236 366.684 541.451 361.927 539.487 356.412C537.522 350.896 536.529 344.83 536.529 338.234C536.529 331.639 537.5 325.572 539.487 320.057ZM563.127 350.069C564.228 353.126 565.567 355.515 567.165 357.262C568.762 358.985 570.489 360.203 572.389 360.893C574.289 361.582 576.016 361.927 577.614 361.927C579.212 361.927 580.939 361.582 582.839 360.893C584.739 360.203 586.466 359.008 588.063 357.262C589.661 355.538 591 353.126 592.101 350.069C593.202 347.013 593.741 343.06 593.741 338.234C593.741 333.408 593.202 329.456 592.101 326.399C591 323.343 589.661 320.953 588.063 319.207C586.466 317.483 584.739 316.265 582.839 315.576C580.939 314.886 579.212 314.542 577.614 314.542C576.016 314.542 574.289 314.886 572.389 315.576C570.489 316.265 568.762 317.46 567.165 319.207C565.567 320.93 564.228 323.343 563.127 326.399C562.026 329.456 561.486 333.408 561.486 338.234C561.486 343.06 562.026 347.013 563.127 350.069Z" fill="#008BC9"></path><path d="M652.594 295.124H677.551V359.238H713.412V381.345H652.594V295.124Z" fill="#008BC9"></path><path d="M747.995 320.057C749.96 314.542 752.745 309.785 756.328 305.809C759.912 301.834 764.252 298.708 769.325 296.456C774.399 294.204 779.991 293.078 786.122 293.078C792.254 293.078 797.845 294.204 802.919 296.456C807.993 298.708 812.31 301.834 815.916 305.809C819.5 309.785 822.285 314.542 824.25 320.057C826.214 325.572 827.207 331.639 827.207 338.234C827.207 344.83 826.214 350.896 824.25 356.412C822.285 361.927 819.5 366.684 815.916 370.659C812.332 374.635 807.993 377.76 802.919 380.012C797.845 382.264 792.254 383.391 786.122 383.391C779.991 383.391 774.399 382.264 769.325 380.012C764.252 377.76 759.934 374.635 756.328 370.659C752.745 366.684 749.96 361.927 747.995 356.412C746.03 350.896 745.037 344.83 745.037 338.234C745.037 331.639 746.009 325.572 747.995 320.057ZM771.657 350.069C772.758 353.126 774.097 355.515 775.694 357.262C777.292 358.985 779.019 360.203 780.919 360.893C782.819 361.582 784.546 361.927 786.144 361.927C787.741 361.927 789.469 361.582 791.369 360.893C793.268 360.203 794.996 359.008 796.593 357.262C798.191 355.538 799.529 353.126 800.63 350.069C801.732 347.013 802.271 343.06 802.271 338.234C802.271 333.408 801.732 329.456 800.63 326.399C799.529 323.343 798.191 320.953 796.593 319.207C794.996 317.483 793.268 316.265 791.369 315.576C789.469 314.886 787.741 314.542 786.144 314.542C784.546 314.542 782.819 314.886 780.919 315.576C779.019 316.265 777.292 317.46 775.694 319.207C774.097 320.93 772.758 323.343 771.657 326.399C770.556 329.456 770.016 333.408 770.016 338.234C770.016 343.06 770.556 347.013 771.657 350.069Z" fill="#008BC9"></path><path d="M920.455 372.542C917.649 376.403 914.237 379.184 910.179 380.884C906.141 382.585 901.867 383.412 897.419 383.412C891.439 383.412 886.063 382.24 881.313 379.919C876.563 377.598 872.483 374.427 869.115 370.428C865.747 366.453 863.178 361.765 861.408 356.364C859.637 350.964 858.752 345.219 858.752 339.106C858.752 330.902 859.983 323.87 862.444 318.033C864.905 312.196 868.057 307.439 871.922 303.785C875.786 300.131 880.061 297.42 884.789 295.696C889.517 293.973 894.159 293.1 898.693 293.1C909.056 293.1 917.411 295.926 923.758 301.556C930.106 307.186 934.186 315.115 936.021 325.341H912.078C911.625 322.193 910.287 319.619 908.041 317.619C905.817 315.597 903.227 314.609 900.269 314.609C897.311 314.609 895.001 315.092 893.058 316.057C891.136 317.022 889.56 318.263 888.351 319.803C887.142 321.342 886.214 323.043 885.566 324.927C884.919 326.812 884.465 328.696 884.206 330.534C883.947 332.396 883.796 334.142 883.753 335.797C883.71 337.451 883.688 338.761 883.688 339.726C883.688 341.749 883.926 344.024 884.422 346.621C884.919 349.194 885.825 351.607 887.142 353.859C888.459 356.111 890.316 358.019 892.691 359.604C895.066 361.167 898.153 361.948 901.931 361.948C903.378 361.948 904.781 361.742 906.184 361.351C907.588 360.96 908.883 360.363 910.092 359.604C911.301 358.846 912.316 357.858 913.158 356.64C914 355.422 914.561 354.02 914.864 352.412H903.853V333.935H936.971V381.39H921.211L920.412 372.565L920.455 372.542Z" fill="#008BC9"></path><path d="M991.352 349.587L962.875 295.124H990.445L1003.94 326.882L1018.02 295.124H1045.35L1016.31 349.587V381.345H991.352V349.587Z" fill="#008BC9"></path><path d="M1133.04 295.124H1174.8C1180.33 295.124 1184.97 296.089 1188.75 298.019C1192.52 299.949 1195.59 302.362 1197.94 305.258C1200.3 308.153 1201.96 311.348 1202.99 314.795C1204.01 318.265 1204.53 321.528 1204.53 324.584C1204.53 329.824 1203.75 334.351 1202.2 338.166C1200.64 341.98 1198.46 345.175 1195.61 347.702C1192.78 350.23 1189.42 352.138 1185.51 353.379C1181.6 354.619 1177.35 355.263 1172.75 355.263H1158V381.345H1133.04V295.124ZM1158 334.742H1167.65C1169.25 334.742 1170.83 334.673 1172.42 334.558C1174.02 334.443 1175.42 334.075 1176.68 333.478C1177.93 332.88 1178.94 331.961 1179.74 330.697C1180.54 329.456 1180.93 327.733 1180.93 325.572C1180.93 323.642 1180.61 322.102 1179.96 320.976C1179.31 319.85 1178.45 319 1177.35 318.449C1176.25 317.897 1174.97 317.552 1173.55 317.414C1172.1 317.299 1170.63 317.231 1169.12 317.231H1158V334.742Z" fill="#008BC9"></path><path d="M1250.36 295.124H1274.76L1304.25 381.345H1278.39L1274.98 369.028H1249.22L1245.59 381.345H1220.53L1250.36 295.124ZM1269.99 350.552L1262.74 323.987H1262.52L1254.68 350.552H1269.99Z" fill="#008BC9"></path><path d="M1333.18 295.124H1380.72C1384.28 295.124 1387.65 295.652 1390.82 296.686C1394 297.743 1396.8 299.283 1399.22 301.328C1401.64 303.373 1403.56 305.947 1405.01 309.004C1406.43 312.06 1407.17 315.645 1407.17 319.758C1407.17 322.01 1406.93 324.24 1406.43 326.469C1405.94 328.698 1405.2 330.743 1404.23 332.696C1403.24 334.627 1401.99 336.35 1400.43 337.89C1398.88 339.429 1397.08 340.578 1395.03 341.383C1398.45 342.762 1401.17 345.335 1403.19 349.104C1405.22 352.873 1406.48 357.469 1406.93 362.869C1406.99 363.926 1407.08 365.282 1407.15 366.983C1407.21 368.683 1407.36 370.43 1407.53 372.245C1407.73 374.061 1407.97 375.784 1408.27 377.439C1408.57 379.093 1409.02 380.403 1409.63 381.368H1384.67C1384.07 379.185 1383.61 377.002 1383.31 374.796C1383.01 372.59 1382.77 370.361 1382.64 368.086C1382.49 366.064 1382.27 364.064 1382.02 362.042C1381.76 360.02 1381.24 358.227 1380.48 356.619C1379.73 355.01 1378.65 353.723 1377.24 352.758C1375.84 351.793 1373.9 351.31 1371.39 351.31H1358.12V381.368H1333.16V295.147L1333.18 295.124ZM1358.14 332.811H1371.18C1372.32 332.811 1373.53 332.742 1374.87 332.581C1376.19 332.421 1377.37 332.03 1378.43 331.432C1379.49 330.835 1380.37 329.962 1381.11 328.836C1381.82 327.71 1382.19 326.17 1382.19 324.24C1382.19 321.505 1381.32 319.391 1379.58 317.897C1377.83 316.403 1374.59 315.668 1369.82 315.668H1358.14V332.811Z" fill="#008BC9"></path><path d="M1457.52 317.231H1434.83V295.124H1505.17V317.231H1482.48V381.345H1457.52V317.231Z" fill="#008BC9"></path><path d="M1537.85 295.124H1563.37L1586.96 341.245H1587.2V295.124H1610.8V381.345H1586.51L1561.66 334.259H1561.45V381.345H1537.85V295.124Z" fill="#008BC9"></path><path d="M1647.21 295.124H1714.26V317.231H1672.16V327.985H1710.4V348.507H1672.16V359.261H1715.49V381.368H1647.21V295.147V295.124Z" fill="#008BC9"></path><path d="M1750.45 295.124H1797.99C1801.55 295.124 1804.92 295.652 1808.09 296.686C1811.27 297.743 1814.07 299.283 1816.49 301.328C1818.91 303.373 1820.83 305.947 1822.28 309.004C1823.7 312.06 1824.44 315.645 1824.44 319.758C1824.44 322.01 1824.2 324.24 1823.7 326.469C1823.21 328.698 1822.47 330.743 1821.5 332.696C1820.51 334.627 1819.25 336.35 1817.7 337.89C1816.15 339.429 1814.35 340.578 1812.3 341.383C1815.71 342.762 1818.43 345.335 1820.46 349.104C1822.51 352.896 1823.74 357.469 1824.2 362.869C1824.26 363.926 1824.35 365.282 1824.41 366.983C1824.48 368.683 1824.63 370.43 1824.8 372.245C1825 374.061 1825.23 375.784 1825.54 377.439C1825.84 379.093 1826.29 380.403 1826.9 381.368H1801.94C1801.33 379.185 1800.88 377.002 1800.58 374.796C1800.28 372.59 1800.04 370.361 1799.91 368.086C1799.76 366.064 1799.54 364.064 1799.28 362.042C1799.02 360.02 1798.51 358.227 1797.75 356.619C1797 355.01 1795.92 353.723 1794.51 352.758C1793.11 351.793 1791.17 351.31 1788.66 351.31H1775.38V381.368H1750.43V295.147L1750.45 295.124ZM1775.43 332.811H1788.47C1789.61 332.811 1790.82 332.742 1792.16 332.581C1793.48 332.421 1794.66 332.03 1795.72 331.432C1796.78 330.835 1797.66 329.962 1798.4 328.836C1799.11 327.71 1799.48 326.17 1799.48 324.24C1799.48 321.505 1798.61 319.391 1796.87 317.897C1795.12 316.403 1791.88 315.668 1787.11 315.668H1775.43V332.811Z" fill="#008BC9"></path><path d="M1877.74 352.367C1877.74 354.458 1878.04 356.343 1878.65 358.043C1879.55 360.617 1881.17 362.318 1883.53 363.122C1885.88 363.926 1888.21 364.34 1890.56 364.34C1891.56 364.34 1892.64 364.248 1893.85 364.041C1895.05 363.834 1896.2 363.444 1897.26 362.823C1898.31 362.203 1899.18 361.421 1899.87 360.41C1900.56 359.399 1900.88 358.089 1900.88 356.481C1900.88 355.355 1900.62 354.412 1900.09 353.654C1899.55 352.896 1898.64 352.16 1897.36 351.471C1896.07 350.782 1894.3 350.069 1892.03 349.288C1889.77 348.529 1886.89 347.61 1883.42 346.576C1880.24 345.611 1877.01 344.577 1873.72 343.497C1870.44 342.417 1867.48 340.969 1864.87 339.153C1862.26 337.338 1860.12 335.04 1858.46 332.259C1856.8 329.479 1855.96 325.917 1855.96 321.574C1855.96 316.587 1856.88 312.29 1858.74 308.705C1860.6 305.12 1863.04 302.155 1866.06 299.834C1869.08 297.49 1872.56 295.79 1876.49 294.71C1880.42 293.63 1884.48 293.078 1888.62 293.078C1893 293.078 1897.21 293.561 1901.21 294.526C1905.22 295.491 1908.76 297.077 1911.87 299.306C1914.98 301.512 1917.46 304.43 1919.36 307.992C1921.24 311.577 1922.28 315.989 1922.43 321.206H1898.83C1899.05 319.597 1898.9 318.218 1898.31 317.092C1897.75 315.966 1896.93 315.047 1895.88 314.312C1894.82 313.508 1893.65 312.956 1892.36 312.611C1891.06 312.29 1889.79 312.129 1888.49 312.129C1887.65 312.129 1886.72 312.221 1885.66 312.359C1884.61 312.519 1883.61 312.795 1882.71 313.209C1881.8 313.622 1881.04 314.197 1880.44 314.955C1879.83 315.714 1879.53 316.702 1879.53 317.92C1879.6 319.459 1880.35 320.723 1881.73 321.734C1883.14 322.746 1884.93 323.619 1887.13 324.4C1889.33 325.159 1891.79 325.894 1894.56 326.583C1897.32 327.273 1900.13 328.008 1903.02 328.812C1905.89 329.709 1908.7 330.743 1911.42 331.961C1914.14 333.179 1916.58 334.718 1918.74 336.603C1920.9 338.487 1922.6 340.831 1923.9 343.612C1925.19 346.392 1925.82 349.747 1925.82 353.7C1925.82 359.33 1924.72 364.041 1922.54 367.833C1920.34 371.625 1917.46 374.658 1913.92 376.956C1910.38 379.254 1906.37 380.909 1901.9 381.897C1897.43 382.908 1892.94 383.413 1888.41 383.413C1886.89 383.413 1884.97 383.299 1882.62 383.046C1880.27 382.816 1877.78 382.287 1875.13 381.483C1872.47 380.679 1869.84 379.599 1867.18 378.22C1864.53 376.841 1862.15 375.003 1860.04 372.659C1857.92 370.315 1856.17 367.511 1854.81 364.202C1853.45 360.893 1852.76 356.963 1852.76 352.367H1877.72H1877.74Z" fill="#008BC9"></path><path d="M2052.85 6.27591L2052.85 380.532" stroke="#008BC9" stroke-width="14.1764"></path><g clip-path="url(#clip0_274_2)"><mask id="path-29-inside-1_274_2" fill="white"><path fill-rule="evenodd" clip-rule="evenodd" d="M2425.32 288.851C2423.09 281.867 2412.35 277.619 2395.83 275.941C2401.49 277.978 2408.33 282.061 2409.55 285.653C2412.5 294.391 2409.78 300.056 2403.43 307.06C2397.59 313.519 2384.85 321.677 2376.57 325.621C2340.36 342.87 2280.63 362.674 2209.55 367.461C2194.05 368.504 2170.68 367.461 2158.84 357.093C2154.26 353.086 2151.89 343.091 2154.7 338.338C2149.39 343.174 2143.73 348.686 2143.58 355.345C2143.45 361.168 2147.72 366.432 2152.98 369.983C2160.69 375.184 2170.49 377.485 2180.17 378.763C2201.92 381.636 2224.18 379.951 2245.99 377.008C2287.58 371.392 2328.61 361.106 2366.5 344.79C2379.56 339.167 2392.39 333.088 2403.76 325.089C2414.67 317.415 2427.25 306.259 2426.15 293.037C2426.04 291.621 2425.75 290.212 2425.31 288.844"></path></mask><path fill-rule="evenodd" clip-rule="evenodd" d="M2425.32 288.851C2423.09 281.867 2412.35 277.619 2395.83 275.941C2401.49 277.978 2408.33 282.061 2409.55 285.653C2412.5 294.391 2409.78 300.056 2403.43 307.06C2397.59 313.519 2384.85 321.677 2376.57 325.621C2340.36 342.87 2280.63 362.674 2209.55 367.461C2194.05 368.504 2170.68 367.461 2158.84 357.093C2154.26 353.086 2151.89 343.091 2154.7 338.338C2149.39 343.174 2143.73 348.686 2143.58 355.345C2143.45 361.168 2147.72 366.432 2152.98 369.983C2160.69 375.184 2170.49 377.485 2180.17 378.763C2201.92 381.636 2224.18 379.951 2245.99 377.008C2287.58 371.392 2328.61 361.106 2366.5 344.79C2379.56 339.167 2392.39 333.088 2403.76 325.089C2414.67 317.415 2427.25 306.259 2426.15 293.037C2426.04 291.621 2425.75 290.212 2425.31 288.844" fill="#008BC9"></path><path d="M2395.83 275.941L2396.15 272.737L2394.73 278.97L2395.83 275.941ZM2409.55 285.653L2412.6 284.623L2412.6 284.619L2409.55 285.653ZM2403.43 307.06L2401.05 304.898L2401.05 304.899L2403.43 307.06ZM2376.57 325.621L2377.96 328.528L2377.96 328.528L2376.57 325.621ZM2209.55 367.461L2209.77 370.674L2209.77 370.674L2209.55 367.461ZM2158.84 357.093L2156.72 359.515L2156.72 359.516L2158.84 357.093ZM2154.7 338.338L2157.47 339.975L2152.53 335.958L2154.7 338.338ZM2143.58 355.345L2140.36 355.272L2140.36 355.273L2143.58 355.345ZM2152.98 369.983L2151.17 372.651L2151.18 372.653L2152.98 369.983ZM2180.17 378.763L2180.59 375.571L2180.59 375.571L2180.17 378.763ZM2245.99 377.008L2246.42 380.199L2246.42 380.199L2245.99 377.008ZM2366.5 344.79L2367.78 347.747L2367.78 347.747L2366.5 344.79ZM2403.76 325.089L2405.62 327.723L2405.62 327.722L2403.76 325.089ZM2426.15 293.037L2422.94 293.302L2422.94 293.303L2426.15 293.037ZM2428.39 287.872C2426.86 283.073 2422.58 279.741 2417.2 277.445C2411.75 275.12 2404.57 273.592 2396.15 272.737L2395.5 279.144C2403.61 279.967 2410.06 281.403 2414.67 283.368C2419.35 285.361 2421.56 287.646 2422.25 289.83L2428.39 287.872ZM2394.73 278.97C2397.34 279.909 2400.23 281.325 2402.56 282.888C2403.72 283.668 2404.68 284.442 2405.39 285.16C2406.12 285.907 2406.41 286.43 2406.5 286.686L2412.6 284.619C2412.08 283.079 2411.06 281.745 2409.99 280.653C2408.89 279.531 2407.55 278.484 2406.15 277.54C2403.34 275.654 2399.97 274.01 2396.92 272.911L2394.73 278.97ZM2406.5 286.683C2407.79 290.517 2407.77 293.397 2406.92 296.008C2406.03 298.74 2404.13 301.501 2401.05 304.898L2405.82 309.222C2409.09 305.615 2411.72 302.041 2413.04 298.005C2414.39 293.848 2414.25 289.527 2412.6 284.623L2406.5 286.683ZM2401.05 304.899C2398.38 307.841 2393.99 311.325 2389.11 314.615C2384.27 317.881 2379.16 320.823 2375.19 322.715L2377.96 328.528C2382.26 326.475 2387.66 323.366 2392.71 319.952C2397.74 316.563 2402.64 312.737 2405.82 309.221L2401.05 304.899ZM2375.19 322.714C2339.31 339.807 2279.97 359.492 2209.33 364.249L2209.77 370.674C2281.29 365.857 2341.42 345.933 2377.96 328.528L2375.19 322.714ZM2209.34 364.249C2201.74 364.76 2192.27 364.754 2183.31 363.374C2174.27 361.982 2166.2 359.256 2160.96 354.67L2156.72 359.516C2163.32 365.298 2172.85 368.278 2182.33 369.739C2191.9 371.212 2201.86 371.206 2209.77 370.674L2209.34 364.249ZM2160.96 354.671C2159.36 353.268 2157.86 350.482 2157.14 347.284C2156.4 344.013 2156.68 341.312 2157.47 339.975L2151.92 336.701C2149.91 340.117 2149.97 344.79 2150.86 348.707C2151.76 352.696 2153.74 356.911 2156.72 359.515L2160.96 354.671ZM2152.53 335.958C2149.88 338.37 2146.92 341.143 2144.62 344.235C2142.31 347.34 2140.46 351.023 2140.36 355.272L2146.8 355.418C2146.85 353.008 2147.91 350.605 2149.79 348.081C2151.68 345.543 2154.2 343.142 2156.86 340.719L2152.53 335.958ZM2140.36 355.273C2140.19 362.73 2145.57 368.866 2151.17 372.651L2154.78 367.315C2149.87 363.998 2146.71 359.607 2146.8 355.417L2140.36 355.273ZM2151.18 372.653C2159.53 378.281 2169.93 380.659 2179.75 381.955L2180.59 375.571C2171.05 374.311 2161.86 372.088 2154.78 367.313L2151.18 372.653ZM2179.74 381.955C2201.92 384.884 2224.51 383.155 2246.42 380.199L2245.56 373.817C2223.85 376.747 2201.92 378.388 2180.59 375.571L2179.74 381.955ZM2246.42 380.199C2288.24 374.552 2329.56 364.201 2367.78 347.747L2365.23 341.833C2327.65 358.012 2286.92 368.232 2245.56 373.817L2246.42 380.199ZM2367.78 347.747C2380.87 342.106 2393.96 335.921 2405.62 327.723L2401.91 322.456C2390.82 330.256 2378.24 336.229 2365.23 341.833L2367.78 347.747ZM2405.62 327.722C2411.15 323.823 2417.31 318.914 2421.96 313.169C2426.6 307.429 2430 300.531 2429.36 292.772L2422.94 293.303C2423.4 298.765 2421.05 304.056 2416.95 309.118C2412.86 314.175 2407.27 318.681 2401.91 322.456L2405.62 327.722ZM2429.36 292.772C2429.22 291.108 2428.89 289.457 2428.38 287.858L2422.25 289.831C2422.61 290.967 2422.85 292.134 2422.94 293.302L2429.36 292.772Z" fill="#008BC9" mask="url(#path-29-inside-1_274_2)"></path><path d="M2425.32 288.851C2423.09 281.867 2412.35 277.619 2395.83 275.941C2401.49 277.978 2408.33 282.061 2409.55 285.653C2412.5 294.391 2409.78 300.056 2403.43 307.06C2397.59 313.519 2384.85 321.677 2376.57 325.621C2340.36 342.87 2280.63 362.674 2209.55 367.461C2194.05 368.504 2170.68 367.461 2158.84 357.093C2154.26 353.086 2151.89 343.091 2154.7 338.338C2149.39 343.174 2143.73 348.686 2143.58 355.345C2143.45 361.168 2147.72 366.432 2152.98 369.983C2160.69 375.184 2170.49 377.485 2180.17 378.763C2201.92 381.636 2224.18 379.951 2245.99 377.008C2287.58 371.392 2328.61 361.106 2366.5 344.79C2379.56 339.167 2392.39 333.088 2403.76 325.089C2414.67 317.415 2427.25 306.259 2426.15 293.037C2426.04 291.621 2425.75 290.212 2425.31 288.844" stroke="#008BC9" stroke-width="0.431368" stroke-miterlimit="10"></path><path d="M2199.18 310.312L2198.23 310.291C2188.74 310.271 2181.05 299.833 2174.58 290.052C2159.48 267.208 2158.34 239.791 2159.03 218.466C2159.81 194.151 2161.96 170.969 2165.43 149.568C2169.58 123.975 2176.33 99.0451 2182.85 74.9371C2183.69 71.8286 2188.56 53.9375 2190.23 47.7412C2190.37 47.23 2191.08 47.1955 2191.26 47.6929C2194.82 57.495 2213.61 109.6 2218.43 129.135C2219.59 133.84 2220.75 138.537 2221.91 143.193C2223.18 148.277 2224.3 152.898 2225.31 157.34C2230.69 180.778 2233.67 200.147 2234.68 218.294C2235.11 226.044 2235.19 232.862 2234.91 239.155C2234.3 252.984 2231.95 264.949 2227.71 275.732C2220.55 293.92 2211.59 305.09 2200.3 309.884L2199.18 310.312ZM2192.04 74.0114C2185.6 97.8225 2180.11 126.586 2176.07 151.558C2172.68 172.44 2170.58 195.098 2169.81 218.895C2169.15 239.639 2170.23 263.526 2183.4 283.448C2185.76 287.026 2192.68 297.484 2197.4 298.679C2205.28 294.79 2212.12 285.575 2217.75 271.262C2221.49 261.744 2223.58 251.057 2224.12 238.596C2224.38 232.717 2224.31 226.293 2223.9 218.957C2222.93 201.515 2220.05 182.802 2214.83 160.054C2213.83 155.696 2212.73 151.143 2211.48 146.142C2210.31 141.466 2209.14 136.761 2207.98 132.043C2203.5 113.876 2192.12 73.7282 2192.04 74.0183L2192.04 74.0114Z" fill="#008BC9" stroke="#008BC9" stroke-width="4.9167" stroke-miterlimit="10"></path><path d="M2287.57 286.336C2287.49 286.37 2287.4 286.384 2287.31 286.384L2286.5 286.37C2277.01 286.349 2269.32 275.898 2262.85 266.11C2247.75 243.231 2246.6 215.787 2247.29 194.428C2248.07 170.078 2250.23 146.868 2253.69 125.447C2257.84 99.8193 2264.59 74.8616 2271.12 50.7259C2271.94 47.6865 2276.6 30.5069 2278.38 23.9376C2278.55 23.2883 2279.45 23.2469 2279.68 23.8755C2283.59 34.693 2301.95 85.6999 2306.69 104.993C2307.85 109.704 2309.01 114.402 2310.18 119.071C2311.45 124.162 2312.57 128.79 2313.58 133.239C2318.96 156.705 2321.93 176.102 2322.95 194.276C2323.38 202.033 2323.45 208.865 2323.18 215.158C2322.57 229.008 2320.22 240.986 2315.98 251.776C2308.82 269.985 2299.86 281.169 2288.57 285.97L2287.57 286.349V286.336ZM2280.31 49.7865C2273.87 73.6251 2268.39 102.424 2264.34 127.43C2260.96 148.339 2258.86 171.025 2258.09 194.849C2257.42 215.621 2258.52 239.543 2271.68 259.485C2274 263.001 2280.7 273.149 2285.41 274.655C2285.58 274.71 2285.77 274.689 2285.93 274.606C2293.7 270.641 2300.45 261.461 2306.03 247.279C2309.77 237.747 2311.86 227.053 2312.4 214.571C2312.66 208.686 2312.59 202.254 2312.17 194.905C2311.2 177.442 2308.32 158.701 2303.1 135.926C2302.1 131.56 2301 127.001 2299.75 121.993C2298.58 117.31 2297.42 112.599 2296.26 107.874C2291.78 89.6857 2280.39 49.4825 2280.31 49.7727V49.7865Z" fill="#008BC9" stroke="#008BC9" stroke-width="4.9167" stroke-miterlimit="10"></path><path d="M2376.02 263.459L2375.08 263.438C2365.58 263.417 2357.89 252.945 2351.42 243.129C2336.32 220.209 2335.18 192.702 2335.86 171.302C2336.65 146.904 2338.8 123.646 2342.26 102.176C2346.4 76.4931 2353.16 51.4871 2359.68 27.303C2360.47 24.381 2364.79 8.431 2366.71 1.32292C2366.95 0.404187 2368.23 0.355833 2368.55 1.24693C2373.03 13.6671 2390.62 62.8158 2395.26 81.6878C2396.42 86.4127 2397.58 91.1169 2398.75 95.7934C2400.02 100.891 2401.13 105.533 2402.15 109.989C2407.53 133.503 2410.51 152.934 2411.52 171.15C2411.95 178.921 2412.03 185.767 2411.75 192.081C2411.15 205.958 2408.8 217.957 2404.56 228.775C2397.4 247.018 2388.44 258.229 2377.15 263.037L2376.03 263.465L2376.02 263.459ZM2368.87 26.3705C2362.43 50.2575 2356.95 79.1181 2352.9 104.173C2349.52 125.124 2347.42 147.857 2346.66 171.73C2345.99 192.543 2347.08 216.513 2360.25 236.504C2362.61 240.09 2369.53 250.589 2374.24 251.784C2382.13 247.882 2388.96 238.639 2394.6 224.278C2398.34 214.731 2400.42 204.01 2400.97 191.5C2401.22 185.601 2401.15 179.156 2400.74 171.793C2399.77 154.295 2396.88 135.513 2391.66 112.697C2390.66 108.324 2389.56 103.758 2388.31 98.7361C2387.14 94.0458 2385.98 89.3278 2384.82 84.589C2380.34 66.3664 2368.95 26.0803 2368.87 26.3705Z" fill="#008BC9" stroke="#008BC9" stroke-width="4.9167" stroke-miterlimit="10"></path><path d="M2197.77 298.681H2195.87C2193.17 298.681 2190.97 300.886 2190.97 303.606V353.155C2190.97 355.876 2193.17 358.081 2195.87 358.081H2197.77C2200.47 358.081 2202.67 355.876 2202.67 353.155V303.606C2202.67 300.886 2200.47 298.681 2197.77 298.681Z" fill="#008BC9" stroke="#008BC9" stroke-width="3.93336"></path><path d="M2286.19 272.942H2284.3C2281.59 272.942 2279.39 275.147 2279.39 277.867V341.149C2279.39 343.87 2281.59 346.075 2284.3 346.075H2286.19C2288.9 346.075 2291.09 343.87 2291.09 341.149V277.867C2291.09 275.147 2288.9 272.942 2286.19 272.942Z" fill="#008BC9" stroke="#008BC9" stroke-width="3.93336"></path><path d="M2375.19 251.784H2373.3C2370.59 251.784 2368.4 253.989 2368.4 256.71V310.638C2368.4 313.359 2370.59 315.564 2373.3 315.564H2375.19C2377.9 315.564 2380.1 313.359 2380.1 310.638V256.71C2380.1 253.989 2377.9 251.784 2375.19 251.784Z" fill="#008BC9" stroke="#008BC9" stroke-width="3.93336"></path></g><defs><clipPath id="clip0_274_2"><rect width="283.335" height="379.927" fill="white" transform="translate(2143.58 0.605408)"></rect></clipPath></defs></svg> 